<?xml version="1.0" standalone="no"?>
<!DOCTYPE svg PUBLIC "-//W3C//DTD SVG 20010904//EN"
 "http://www.w3.org/TR/2001/REC-SVG-20010904/DTD/svg10.dtd">
<svg version="1.0" xmlns="http://www.w3.org/2000/svg"
 width="2083.000000pt" height="2083.000000pt" viewBox="0 0 2083.000000 2083.000000"
 preserveAspectRatio="xMidYMid meet">

<g transform="translate(0.000000,2083.000000) scale(0.100000,-0.100000)"
fill="#000000" stroke="none">
<path d="M1365 20812 c-5 -5 -57 -33 -115 -63 -233 -118 -336 -209 -467 -413
-36 -56 -78 -121 -95 -146 l-29 -45 4 -9230 c5 -9112 7 -9667 37 -10090 20
-282 46 -342 214 -511 81 -81 132 -120 261 -202 l160 -102 7600 0 7600 0 150
94 c82 51 178 119 212 150 106 97 247 333 277 466 34 147 38 289 43 1416 l5
1121 496 7 c1015 14 1327 27 1507 62 251 48 373 122 625 380 192 197 229 268
264 514 45 321 48 492 53 3295 l4 2670 -67 145 c-78 167 -112 228 -183 325
-154 211 -375 366 -611 429 -237 64 -445 77 -1337 83 l-751 5 -5 1877 c-6
2119 -10 2254 -71 2386 -13 28 -63 93 -111 145 -351 379 -1676 1723 -3299
3346 -1293 1292 -1777 1771 -1843 1821 -28 22 -46 25 -185 33 -439 27 -1234
32 -5698 37 -2919 3 -4639 1 -4645 -5z m9548 -3004 c5 -1721 7 -1855 42 -2089
24 -162 116 -412 212 -572 64 -108 211 -258 326 -332 84 -54 495 -260 540
-270 12 -2 351 -9 752 -15 680 -9 908 -12 1960 -25 220 -3 579 -8 798 -11
l397 -7 0 -1647 0 -1648 -1577 -6 c-868 -4 -3424 -16 -5681 -26 l-4102 -20
-128 -66 c-148 -77 -205 -111 -286 -173 -218 -165 -421 -462 -441 -646 -3 -33
-8 -73 -10 -90 -2 -16 -10 -167 -16 -335 -17 -420 -17 -4549 0 -5045 18 -539
32 -639 115 -810 159 -330 523 -598 896 -660 276 -46 1332 -54 6808 -55 l4444
0 -5 -827 c-6 -795 -14 -1034 -36 -1056 -17 -17 -110 -25 -426 -39 -482 -21
-13533 -14 -13554 7 -10 10 -23 10905 -17 14515 5 3122 7 3522 21 3579 8 35
18 67 21 72 3 5 1924 9 4474 9 l4468 0 5 -1712z m-768 -7768 c134 -25 241
-101 271 -193 28 -85 136 -329 418 -942 333 -722 302 -656 343 -750 63 -145
252 -519 277 -550 24 -30 25 -30 40 -10 36 46 328 647 566 1165 163 355 444
921 520 1047 34 57 80 123 103 148 48 53 87 66 252 87 139 18 965 18 1090 0
110 -16 181 -38 189 -59 35 -90 49 -1357 36 -3258 -5 -803 -10 -1601 -10
-1772 l0 -313 -725 0 -725 0 0 83 c1 351 -45 2282 -55 2357 -17 113 -40 144
-78 102 -18 -20 -114 -217 -180 -372 -25 -58 -77 -177 -115 -265 -38 -88 -93
-213 -121 -278 -175 -404 -280 -604 -364 -693 -96 -103 -163 -119 -437 -103
-102 5 -208 15 -237 20 -125 24 -185 108 -368 519 -89 197 -218 488 -284 636
-20 44 -97 214 -171 377 l-135 297 -6 -58 c-4 -31 -7 -124 -8 -207 0 -82 -10
-659 -23 -1281 l-22 -1131 -146 -6 c-318 -14 -986 -19 -1097 -9 -157 16 -200
28 -218 63 -45 87 -55 475 -55 2189 0 1421 11 2469 30 2859 10 210 20 246 72
284 14 11 52 23 85 27 89 13 1217 4 1288 -10z m8250 0 c356 -12 446 -21 485
-49 52 -38 53 -50 58 -672 l4 -576 -364 -6 c-199 -4 -711 -10 -1136 -13 -425
-4 -775 -11 -778 -15 -5 -8 8 -366 22 -615 l6 -101 111 -6 c62 -4 423 -9 802
-12 380 -3 763 -8 853 -11 l163 -6 -6 -232 c-11 -446 -26 -930 -28 -932 -2 -2
-287 -11 -1152 -34 -198 -5 -409 -10 -470 -10 -60 -1 -147 -4 -192 -7 l-83 -6
0 -397 0 -397 108 -6 c59 -4 460 -9 892 -12 432 -3 908 -8 1058 -11 l272 -6 0
-57 c0 -31 -7 -283 -15 -561 -8 -278 -15 -538 -15 -577 l0 -73 -1895 0 c-1715
0 -1896 2 -1902 16 -3 8 -6 1139 -7 2512 -1 2428 2 2744 29 2814 14 37 190 63
470 71 245 7 2413 -3 2710 -13z"/>
</g>
</svg>
