<svg width="243" height="243" viewBox="0 0 243 243" fill="none" xmlns="http://www.w3.org/2000/svg">
<circle cx="121.5" cy="121.5" r="121.5" fill="#3D3D3D"/>
<path d="M90.6362 201.28C85.8997 201.28 83.5315 198.752 83.5315 193.697V63.864C83.5315 58.8083 85.8997 56.2804 90.6362 56.2804H170.919C175.994 56.2804 178.531 58.4712 178.531 62.8529V74.7845C178.531 79.1662 175.994 81.3571 170.919 81.3571H113.168V116.545H162.597C167.671 116.545 170.209 118.736 170.209 123.118V135.05C170.209 139.431 167.671 141.622 162.597 141.622H113.168V193.697C113.168 198.752 110.8 201.28 106.064 201.28H90.6362Z" fill="white"/>
<rect x="156.142" y="100.644" width="34.634" height="55.4143" transform="rotate(30 156.142 100.644)" fill="#3D3D3D"/>
<rect x="39" y="181.066" width="27.2143" height="90.1605" transform="rotate(-60.2301 39 181.066)" fill="#3D3D3D"/>
<rect x="175.538" y="48" width="34.634" height="55.4143" transform="rotate(30 175.538 48)" fill="#3D3D3D"/>
</svg>
